<mxfile host="app.diagrams.net" modified="2024-06-15T06:20:15.570Z" agent="Mozilla/5.0 (Windows NT 10.0; Win64; x64) AppleWebKit/537.36 (KHTML, like Gecko) Chrome/125.0.0.0 Safari/537.36" etag="xp-Cw6wafVLl7Hph71ES" version="24.5.4" type="device">
  <diagram id="C5RBs43oDa-KdzZeNtuy" name="Page-1">
    <mxGraphModel dx="1784" dy="1700" grid="1" gridSize="10" guides="1" tooltips="1" connect="1" arrows="1" fold="1" page="1" pageScale="1" pageWidth="827" pageHeight="1169" math="0" shadow="0">
      <root>
        <mxCell id="WIyWlLk6GJQsqaUBKTNV-0" />
        <mxCell id="WIyWlLk6GJQsqaUBKTNV-1" parent="WIyWlLk6GJQsqaUBKTNV-0" />
        <mxCell id="WIyWlLk6GJQsqaUBKTNV-2" value="" style="rounded=0;html=1;jettySize=auto;orthogonalLoop=1;fontSize=11;endArrow=block;endFill=0;endSize=8;strokeWidth=1;shadow=0;labelBackgroundColor=none;edgeStyle=orthogonalEdgeStyle;" parent="WIyWlLk6GJQsqaUBKTNV-1" edge="1">
          <mxGeometry relative="1" as="geometry">
            <mxPoint x="338" y="120" as="sourcePoint" />
            <mxPoint x="338" y="170" as="targetPoint" />
          </mxGeometry>
        </mxCell>
        <mxCell id="WIyWlLk6GJQsqaUBKTNV-4" value="" style="rounded=0;html=1;jettySize=auto;orthogonalLoop=1;fontSize=11;endArrow=block;endFill=0;endSize=8;strokeWidth=1;shadow=0;labelBackgroundColor=none;edgeStyle=orthogonalEdgeStyle;" parent="WIyWlLk6GJQsqaUBKTNV-1" edge="1">
          <mxGeometry y="20" relative="1" as="geometry">
            <mxPoint as="offset" />
            <mxPoint x="338" y="250" as="sourcePoint" />
            <mxPoint x="337.9999999999998" y="320.0000000000002" as="targetPoint" />
          </mxGeometry>
        </mxCell>
        <mxCell id="WIyWlLk6GJQsqaUBKTNV-8" value="" style="rounded=0;html=1;jettySize=auto;orthogonalLoop=1;fontSize=11;endArrow=block;endFill=0;endSize=8;strokeWidth=1;shadow=0;labelBackgroundColor=none;edgeStyle=orthogonalEdgeStyle;" parent="WIyWlLk6GJQsqaUBKTNV-1" target="WIyWlLk6GJQsqaUBKTNV-11" edge="1">
          <mxGeometry x="0.3333" y="20" relative="1" as="geometry">
            <mxPoint as="offset" />
            <mxPoint x="337.9999999999998" y="399.9999999999998" as="sourcePoint" />
          </mxGeometry>
        </mxCell>
        <mxCell id="WIyWlLk6GJQsqaUBKTNV-11" value="MAX4466: db = map(signalMax - signalMin, 920, 4095, 15, 125)&lt;div&gt;&lt;br&gt;&lt;/div&gt;&lt;div&gt;MQ7: ppm = (voltage - 0.1)*200;&lt;/div&gt;" style="rounded=1;whiteSpace=wrap;html=1;fontSize=12;glass=0;strokeWidth=1;shadow=0;" parent="WIyWlLk6GJQsqaUBKTNV-1" vertex="1">
          <mxGeometry x="218" y="440" width="240" height="90" as="geometry" />
        </mxCell>
        <mxCell id="XPICR8DcgxXyOPAXqLhe-0" value="INICIO" style="ellipse;whiteSpace=wrap;html=1;" parent="WIyWlLk6GJQsqaUBKTNV-1" vertex="1">
          <mxGeometry x="278" y="40" width="120" height="80" as="geometry" />
        </mxCell>
        <mxCell id="05I1Qad52qRNjN_XQJzg-6" style="edgeStyle=orthogonalEdgeStyle;rounded=0;orthogonalLoop=1;jettySize=auto;html=1;" edge="1" parent="WIyWlLk6GJQsqaUBKTNV-1" source="05I1Qad52qRNjN_XQJzg-0">
          <mxGeometry relative="1" as="geometry">
            <mxPoint x="338" y="320" as="targetPoint" />
          </mxGeometry>
        </mxCell>
        <mxCell id="05I1Qad52qRNjN_XQJzg-0" value="&lt;div style=&quot;font-size: 11px;&quot;&gt;&lt;span style=&quot;background-color: initial;&quot;&gt;&lt;font style=&quot;font-size: 11px;&quot;&gt;&lt;b&gt;INICIALIZAR&lt;/b&gt;&lt;/font&gt;&lt;/span&gt;&lt;/div&gt;&lt;div style=&quot;font-size: 11px;&quot;&gt;&lt;font style=&quot;font-size: 11px;&quot;&gt;&lt;span style=&quot;background-color: initial;&quot;&gt;-pin A0 (MQ7)&lt;/span&gt;&lt;br&gt;&lt;/font&gt;&lt;/div&gt;&lt;div style=&quot;font-size: 11px;&quot;&gt;&lt;div style=&quot;&quot;&gt;&lt;div style=&quot;&quot;&gt;&lt;font style=&quot;font-size: 11px;&quot;&gt;- pin A0 (max4466)&lt;/font&gt;&lt;/div&gt;&lt;div style=&quot;&quot;&gt;&lt;font style=&quot;font-size: 11px;&quot;&gt;- pin RX (pm3003)&lt;/font&gt;&lt;/div&gt;&lt;div style=&quot;&quot;&gt;&lt;font style=&quot;font-size: 11px;&quot;&gt;- pin TX (pms3003&lt;/font&gt;&lt;/div&gt;&lt;/div&gt;&lt;/div&gt;" style="rounded=1;whiteSpace=wrap;html=1;align=center;" vertex="1" parent="WIyWlLk6GJQsqaUBKTNV-1">
          <mxGeometry x="268" y="170" width="140" height="80" as="geometry" />
        </mxCell>
        <mxCell id="05I1Qad52qRNjN_XQJzg-1" value="" style="endArrow=none;dashed=1;html=1;rounded=0;" edge="1" parent="WIyWlLk6GJQsqaUBKTNV-1">
          <mxGeometry width="50" height="50" relative="1" as="geometry">
            <mxPoint x="550" y="281" as="sourcePoint" />
            <mxPoint x="170" y="281" as="targetPoint" />
          </mxGeometry>
        </mxCell>
        <mxCell id="05I1Qad52qRNjN_XQJzg-2" value="&lt;font style=&quot;font-size: 11px;&quot;&gt;LOOP (1 seg)&lt;/font&gt;" style="text;strokeColor=none;align=center;fillColor=none;html=1;verticalAlign=middle;whiteSpace=wrap;rounded=0;strokeWidth=0;" vertex="1" parent="WIyWlLk6GJQsqaUBKTNV-1">
          <mxGeometry x="162" y="254" width="90" height="30" as="geometry" />
        </mxCell>
        <mxCell id="05I1Qad52qRNjN_XQJzg-7" value="obtener lecturas de los pines de cada sensor" style="rounded=1;whiteSpace=wrap;html=1;" vertex="1" parent="WIyWlLk6GJQsqaUBKTNV-1">
          <mxGeometry x="278" y="320" width="120" height="80" as="geometry" />
        </mxCell>
        <mxCell id="05I1Qad52qRNjN_XQJzg-13" value="" style="endArrow=none;html=1;rounded=0;entryX=0.5;entryY=1;entryDx=0;entryDy=0;" edge="1" parent="WIyWlLk6GJQsqaUBKTNV-1" target="WIyWlLk6GJQsqaUBKTNV-11">
          <mxGeometry width="50" height="50" relative="1" as="geometry">
            <mxPoint x="338" y="560" as="sourcePoint" />
            <mxPoint x="350" y="440" as="targetPoint" />
          </mxGeometry>
        </mxCell>
        <mxCell id="05I1Qad52qRNjN_XQJzg-14" value="" style="endArrow=none;html=1;rounded=0;exitX=0.5;exitY=0;exitDx=0;exitDy=0;" edge="1" parent="WIyWlLk6GJQsqaUBKTNV-1" source="05I1Qad52qRNjN_XQJzg-24">
          <mxGeometry width="50" height="50" relative="1" as="geometry">
            <mxPoint x="600" y="560" as="sourcePoint" />
            <mxPoint x="140" y="560" as="targetPoint" />
            <Array as="points">
              <mxPoint x="620" y="560" />
            </Array>
          </mxGeometry>
        </mxCell>
        <mxCell id="05I1Qad52qRNjN_XQJzg-16" value="" style="endArrow=none;html=1;rounded=0;entryX=0.5;entryY=0;entryDx=0;entryDy=0;" edge="1" parent="WIyWlLk6GJQsqaUBKTNV-1" target="05I1Qad52qRNjN_XQJzg-23">
          <mxGeometry width="50" height="50" relative="1" as="geometry">
            <mxPoint x="340" y="560" as="sourcePoint" />
            <mxPoint x="338" y="600" as="targetPoint" />
          </mxGeometry>
        </mxCell>
        <mxCell id="05I1Qad52qRNjN_XQJzg-19" value="" style="endArrow=none;html=1;rounded=0;" edge="1" parent="WIyWlLk6GJQsqaUBKTNV-1" source="05I1Qad52qRNjN_XQJzg-21">
          <mxGeometry width="50" height="50" relative="1" as="geometry">
            <mxPoint x="135" y="560" as="sourcePoint" />
            <mxPoint x="135" y="600" as="targetPoint" />
          </mxGeometry>
        </mxCell>
        <mxCell id="05I1Qad52qRNjN_XQJzg-22" value="" style="endArrow=none;html=1;rounded=0;" edge="1" parent="WIyWlLk6GJQsqaUBKTNV-1" target="05I1Qad52qRNjN_XQJzg-21">
          <mxGeometry width="50" height="50" relative="1" as="geometry">
            <mxPoint x="135" y="560" as="sourcePoint" />
            <mxPoint x="160" y="600" as="targetPoint" />
          </mxGeometry>
        </mxCell>
        <mxCell id="05I1Qad52qRNjN_XQJzg-21" value="if&lt;div&gt;&lt;br&gt;&lt;/div&gt;&lt;div&gt;CO &amp;gt; 200 ppm&lt;/div&gt;" style="rhombus;whiteSpace=wrap;html=1;" vertex="1" parent="WIyWlLk6GJQsqaUBKTNV-1">
          <mxGeometry x="95" y="600" width="80" height="80" as="geometry" />
        </mxCell>
        <mxCell id="05I1Qad52qRNjN_XQJzg-23" value="if&amp;nbsp;&lt;div&gt;pm2.5 &amp;gt; 36&amp;nbsp;Âµg/m*3&lt;/div&gt;" style="rhombus;whiteSpace=wrap;html=1;" vertex="1" parent="WIyWlLk6GJQsqaUBKTNV-1">
          <mxGeometry x="278" y="590" width="132" height="100" as="geometry" />
        </mxCell>
        <mxCell id="05I1Qad52qRNjN_XQJzg-24" value="if&amp;nbsp;&lt;div&gt;decibeles &amp;gt; 90 db&lt;/div&gt;" style="rhombus;whiteSpace=wrap;html=1;" vertex="1" parent="WIyWlLk6GJQsqaUBKTNV-1">
          <mxGeometry x="560" y="587.5" width="120" height="105" as="geometry" />
        </mxCell>
        <mxCell id="05I1Qad52qRNjN_XQJzg-25" value="" style="endArrow=classic;html=1;rounded=0;exitX=1;exitY=0.5;exitDx=0;exitDy=0;" edge="1" parent="WIyWlLk6GJQsqaUBKTNV-1" source="05I1Qad52qRNjN_XQJzg-21">
          <mxGeometry width="50" height="50" relative="1" as="geometry">
            <mxPoint x="185" y="690" as="sourcePoint" />
            <mxPoint x="280" y="880" as="targetPoint" />
            <Array as="points">
              <mxPoint x="195" y="640" />
              <mxPoint x="195" y="710" />
              <mxPoint x="175" y="710" />
              <mxPoint x="175" y="880" />
            </Array>
          </mxGeometry>
        </mxCell>
        <mxCell id="05I1Qad52qRNjN_XQJzg-26" value="" style="endArrow=classic;html=1;rounded=0;exitX=0;exitY=0.5;exitDx=0;exitDy=0;" edge="1" parent="WIyWlLk6GJQsqaUBKTNV-1" source="05I1Qad52qRNjN_XQJzg-21">
          <mxGeometry width="50" height="50" relative="1" as="geometry">
            <mxPoint x="55" y="850" as="sourcePoint" />
            <mxPoint x="55" y="720" as="targetPoint" />
            <Array as="points">
              <mxPoint x="55" y="640" />
            </Array>
          </mxGeometry>
        </mxCell>
        <mxCell id="05I1Qad52qRNjN_XQJzg-27" value="si" style="text;html=1;align=center;verticalAlign=middle;whiteSpace=wrap;rounded=0;" vertex="1" parent="WIyWlLk6GJQsqaUBKTNV-1">
          <mxGeometry x="45" y="660" width="60" height="30" as="geometry" />
        </mxCell>
        <mxCell id="05I1Qad52qRNjN_XQJzg-28" value="no" style="text;html=1;align=center;verticalAlign=middle;whiteSpace=wrap;rounded=0;" vertex="1" parent="WIyWlLk6GJQsqaUBKTNV-1">
          <mxGeometry x="160" y="616" width="60" height="30" as="geometry" />
        </mxCell>
        <mxCell id="05I1Qad52qRNjN_XQJzg-32" value="" style="endArrow=none;html=1;rounded=0;entryX=0.5;entryY=1;entryDx=0;entryDy=0;" edge="1" parent="WIyWlLk6GJQsqaUBKTNV-1" source="05I1Qad52qRNjN_XQJzg-30">
          <mxGeometry width="50" height="50" relative="1" as="geometry">
            <mxPoint x="175" y="810" as="sourcePoint" />
            <mxPoint x="55" y="750" as="targetPoint" />
            <Array as="points" />
          </mxGeometry>
        </mxCell>
        <mxCell id="05I1Qad52qRNjN_XQJzg-36" value="" style="endArrow=none;html=1;rounded=0;entryX=0.5;entryY=1;entryDx=0;entryDy=0;" edge="1" parent="WIyWlLk6GJQsqaUBKTNV-1" target="05I1Qad52qRNjN_XQJzg-30">
          <mxGeometry width="50" height="50" relative="1" as="geometry">
            <mxPoint x="175" y="810" as="sourcePoint" />
            <mxPoint x="55" y="750" as="targetPoint" />
            <Array as="points">
              <mxPoint x="50" y="810" />
            </Array>
          </mxGeometry>
        </mxCell>
        <mxCell id="05I1Qad52qRNjN_XQJzg-30" value="Enviar alerta" style="rounded=1;whiteSpace=wrap;html=1;" vertex="1" parent="WIyWlLk6GJQsqaUBKTNV-1">
          <mxGeometry y="720" width="100" height="30" as="geometry" />
        </mxCell>
        <mxCell id="05I1Qad52qRNjN_XQJzg-38" value="" style="endArrow=classic;html=1;rounded=0;exitX=0;exitY=0.5;exitDx=0;exitDy=0;" edge="1" parent="WIyWlLk6GJQsqaUBKTNV-1" source="05I1Qad52qRNjN_XQJzg-23">
          <mxGeometry width="50" height="50" relative="1" as="geometry">
            <mxPoint x="310" y="710" as="sourcePoint" />
            <mxPoint x="260" y="720" as="targetPoint" />
            <Array as="points">
              <mxPoint x="260" y="640" />
            </Array>
          </mxGeometry>
        </mxCell>
        <mxCell id="05I1Qad52qRNjN_XQJzg-39" value="si" style="text;html=1;align=center;verticalAlign=middle;whiteSpace=wrap;rounded=0;" vertex="1" parent="WIyWlLk6GJQsqaUBKTNV-1">
          <mxGeometry x="240" y="680" width="60" height="30" as="geometry" />
        </mxCell>
        <mxCell id="05I1Qad52qRNjN_XQJzg-40" value="" style="endArrow=classic;html=1;rounded=0;exitX=1;exitY=0.5;exitDx=0;exitDy=0;" edge="1" parent="WIyWlLk6GJQsqaUBKTNV-1" source="05I1Qad52qRNjN_XQJzg-23">
          <mxGeometry width="50" height="50" relative="1" as="geometry">
            <mxPoint x="310" y="710" as="sourcePoint" />
            <mxPoint x="360" y="850" as="targetPoint" />
            <Array as="points">
              <mxPoint x="450" y="640" />
              <mxPoint x="450" y="800" />
              <mxPoint x="360" y="800" />
            </Array>
          </mxGeometry>
        </mxCell>
        <mxCell id="05I1Qad52qRNjN_XQJzg-41" value="no" style="text;html=1;align=center;verticalAlign=middle;whiteSpace=wrap;rounded=0;" vertex="1" parent="WIyWlLk6GJQsqaUBKTNV-1">
          <mxGeometry x="408" y="616" width="60" height="30" as="geometry" />
        </mxCell>
        <mxCell id="05I1Qad52qRNjN_XQJzg-42" value="Enviar alerta" style="rounded=1;whiteSpace=wrap;html=1;" vertex="1" parent="WIyWlLk6GJQsqaUBKTNV-1">
          <mxGeometry x="218" y="720" width="90" height="30" as="geometry" />
        </mxCell>
        <mxCell id="05I1Qad52qRNjN_XQJzg-43" value="" style="endArrow=none;html=1;rounded=0;exitX=0.5;exitY=1;exitDx=0;exitDy=0;" edge="1" parent="WIyWlLk6GJQsqaUBKTNV-1" source="05I1Qad52qRNjN_XQJzg-42">
          <mxGeometry width="50" height="50" relative="1" as="geometry">
            <mxPoint x="210" y="740" as="sourcePoint" />
            <mxPoint x="360" y="800" as="targetPoint" />
            <Array as="points">
              <mxPoint x="263" y="800" />
              <mxPoint x="360" y="800" />
            </Array>
          </mxGeometry>
        </mxCell>
        <mxCell id="05I1Qad52qRNjN_XQJzg-44" value="" style="endArrow=classic;html=1;rounded=0;exitX=0;exitY=0.5;exitDx=0;exitDy=0;" edge="1" parent="WIyWlLk6GJQsqaUBKTNV-1" source="05I1Qad52qRNjN_XQJzg-24">
          <mxGeometry width="50" height="50" relative="1" as="geometry">
            <mxPoint x="340" y="630" as="sourcePoint" />
            <mxPoint x="530" y="700" as="targetPoint" />
            <Array as="points">
              <mxPoint x="530" y="640" />
            </Array>
          </mxGeometry>
        </mxCell>
        <mxCell id="05I1Qad52qRNjN_XQJzg-45" value="si" style="text;html=1;align=center;verticalAlign=middle;whiteSpace=wrap;rounded=0;" vertex="1" parent="WIyWlLk6GJQsqaUBKTNV-1">
          <mxGeometry x="509" y="657" width="60" height="30" as="geometry" />
        </mxCell>
        <mxCell id="05I1Qad52qRNjN_XQJzg-46" value="Enviar alerta" style="rounded=1;whiteSpace=wrap;html=1;" vertex="1" parent="WIyWlLk6GJQsqaUBKTNV-1">
          <mxGeometry x="479" y="700" width="90" height="30" as="geometry" />
        </mxCell>
        <mxCell id="05I1Qad52qRNjN_XQJzg-47" value="" style="endArrow=classic;html=1;rounded=0;exitX=1;exitY=0.5;exitDx=0;exitDy=0;" edge="1" parent="WIyWlLk6GJQsqaUBKTNV-1" source="05I1Qad52qRNjN_XQJzg-24">
          <mxGeometry width="50" height="50" relative="1" as="geometry">
            <mxPoint x="630" y="650" as="sourcePoint" />
            <mxPoint x="460" y="880" as="targetPoint" />
            <Array as="points">
              <mxPoint x="720" y="640" />
              <mxPoint x="720" y="880" />
            </Array>
          </mxGeometry>
        </mxCell>
        <mxCell id="05I1Qad52qRNjN_XQJzg-48" value="" style="endArrow=none;html=1;rounded=0;entryX=0.445;entryY=1.016;entryDx=0;entryDy=0;entryPerimeter=0;" edge="1" parent="WIyWlLk6GJQsqaUBKTNV-1" target="05I1Qad52qRNjN_XQJzg-46">
          <mxGeometry width="50" height="50" relative="1" as="geometry">
            <mxPoint x="519" y="880" as="sourcePoint" />
            <mxPoint x="640" y="820" as="targetPoint" />
          </mxGeometry>
        </mxCell>
        <mxCell id="05I1Qad52qRNjN_XQJzg-49" value="no" style="text;html=1;align=center;verticalAlign=middle;whiteSpace=wrap;rounded=0;" vertex="1" parent="WIyWlLk6GJQsqaUBKTNV-1">
          <mxGeometry x="670" y="700" width="60" height="30" as="geometry" />
        </mxCell>
        <mxCell id="05I1Qad52qRNjN_XQJzg-52" value="Mostrar datos en la aplicaciÃ³n" style="rounded=1;whiteSpace=wrap;html=1;" vertex="1" parent="WIyWlLk6GJQsqaUBKTNV-1">
          <mxGeometry x="283" y="852" width="172" height="80" as="geometry" />
        </mxCell>
        <mxCell id="05I1Qad52qRNjN_XQJzg-54" value="" style="endArrow=classic;html=1;rounded=0;exitX=0.5;exitY=1;exitDx=0;exitDy=0;" edge="1" parent="WIyWlLk6GJQsqaUBKTNV-1" source="05I1Qad52qRNjN_XQJzg-52">
          <mxGeometry width="50" height="50" relative="1" as="geometry">
            <mxPoint x="410" y="930" as="sourcePoint" />
            <mxPoint x="369" y="970" as="targetPoint" />
          </mxGeometry>
        </mxCell>
        <mxCell id="05I1Qad52qRNjN_XQJzg-55" value="FIN&amp;nbsp;" style="ellipse;whiteSpace=wrap;html=1;" vertex="1" parent="WIyWlLk6GJQsqaUBKTNV-1">
          <mxGeometry x="308" y="970" width="120" height="80" as="geometry" />
        </mxCell>
      </root>
    </mxGraphModel>
  </diagram>
</mxfile>
